<svg xmlns="http://www.w3.org/2000/svg" viewBox="0 0 1129.22 582.45">
    <defs>
        <style>.cls-1{fill:#e3344e;}.cls-2{fill:#fff;}</style>
    </defs>
    <g id="Layer_2" data-name="Layer 2">
        <g id="Layer_1-2" data-name="Layer 1">
            <path class="cls-1"
                  d="M937.13,506.18V516.6h10V527h10v10.42h10v10.42h-10v10.43h-10v10.42h-10v10.42h-20V568.71h10V558.29h10V547.86h10V537.44h-10V527h-10V516.6h-10V506.18Z"/>
            <polygon class="cls-1"
                     points="905.13 507.1 887.71 507.1 887.71 517.15 877.87 517.15 877.87 527.39 868.54 527.39 868.54 537.45 858.7 537.45 858.7 547.68 849.38 547.68 849.38 557.74 839.54 557.74 839.54 567.98 830.22 567.98 830.22 578.21 847.64 578.21 847.64 567.98 856.96 567.98 856.96 557.92 866.81 557.92 866.81 547.68 876.12 547.68 876.12 537.63 885.97 537.63 885.97 527.39 895.28 527.39 895.28 517.33 905.13 517.33 905.13 507.1"/>
            <path class="cls-1"
                  d="M723,579.13V568.71H713V558.29H703V547.86H693V537.44h10V527h10V516.6h10V506.18h20V516.6H733V527H723v10.42H713v10.42h10v10.43h10v10.42h10v10.42Z"/>
            <polygon class="cls-1"
                     points="976.22 0 67.64 177.18 0 397.75 153.01 573.13 754.86 455.82 788.44 582.45 941.29 419.48 1061.58 396.03 1129.22 175.38 976.22 0"/>
            <path class="cls-2"
                  d="M122.4,348.54V328.06h-19l0-20.48h40.11l1,20.48h52.8v-41H122.4V266.62h-18v-41h18V205.19h98.13v20.48h18v20.48h-40.1V225.67H144.55v41h76V287.1h18v41h-18v20.48Z"/>
            <path class="cls-2"
                  d="M428.15,348.54V246.15h14.08V225.67h20.48V205.19h61.44v20.48h20.47v20.48h14.09V348.54H524.15v-41H462.71v41Zm34.56-61.44h61.44v-41H503.67V225.67H483.19v20.48H462.71Z"/>
            <path class="cls-2"
                  d="M900.9,348.54V246.15H915V225.67h20.47V205.19H996.9v20.48h20.48v20.48h14.08V348.54H996.9v-41H935.46v41Zm34.56-61.44H996.9v-41H976.42V225.67H956v20.48H935.46Z"/>
            <path class="cls-2" d="M797.13,348.54V225.67H754V205.19H876.88v20.48h-42V348.54Z"/>
            <path class="cls-2" d="M386,225.67V205.19H289.33v20.66H274.74V348.54h32.4V286.78H386V266.3h12.44V225.67Zm-19.4,40.63H307.14V225.67h59.41Z"/>
            <path class="cls-2"
                  d="M711.82,328.06V307.58H691.34V283.9h19.27V266.15H725.9V225.67H711.82V205.19h-98.6v20.66H598.49V348.54H632V287.11h23.59V310h17.37v17.9h18.54l-.13,20.64h40.95V328.06ZM632,266.64v-41h59.37v20.49l.13,20.48Z"/>
        </g>
    </g>
</svg>